# ProBuilder 5.0.7
# https://unity3d.com/unity/features/worldbuilding/probuilder
# 20.01.2025 15:08:39

mtllib ./Sprite_(1).mtl
o Sprite (1)

g Sprite (1)
v -9.593037 -2.32795 2.797066
v -9.593067 -2.32795 -0.9841385
v -12.84304 -2.32795 2.797066
v -12.84307 -2.32795 -0.9841385
v -9.593037 -0.05961049 2.797066
v -12.84304 -0.05961049 2.797066
v -9.593067 -0.05961037 -0.9841385
v -12.84307 -0.05961037 -0.9841385
v -7.945805 -2.32795 -0.9841385
v -5.212521 -2.32795 2.797066
v -7.402779 -2.32795 2.797066
v -8.769436 -2.32795 -0.9841385
v -5.212524 -0.05961047 2.797066
v -7.402782 -0.1702551 2.797066
v -7.945808 -0.05961033 -0.9841385
v -8.769436 -0.170255 -0.9841385

vt 9.593037 2.797066
vt 9.593067 -0.9841384
vt 12.84304 2.797066
vt 12.84307 -0.9841384
vt 9.593037 -0.05961049
vt 9.593037 -2.32795
vt 12.84304 -0.05961049
vt 12.84304 -2.32795
vt -9.593067 -2.32795
vt -9.593067 -0.05961037
vt -12.84307 -2.32795
vt -12.84307 -0.05961037
vt -9.593067 -0.9841385
vt -9.593037 2.797066
vt -12.84307 -0.9841385
vt -12.84304 2.797066
vt -2.796962 -2.32795
vt 0.9842421 -2.32795
vt 0.9842421 -0.05961037
vt -2.796962 -0.05961049
vt 7.945805 -0.9841384
vt 5.212521 2.797066
vt 7.402779 2.797066
vt 8.769436 -0.9841384
vt 5.212521 -2.32795
vt 5.212524 -0.05961047
vt 7.402782 -0.1702551
vt 7.402779 -2.32795
vt -7.945808 -0.05961033
vt -7.945805 -2.32795
vt -8.769436 -2.32795
vt -8.769436 -0.170255
vt -5.212523 2.797494
vt -7.945807 -0.9835529
vt -8.769434 -0.9825435
vt -7.40278 2.798503
vt -9.593066 -0.9835527

vn 0 1 6.305361E-08
vn 0 0 -1
vn 0 0 1
vn 0 -1 -3.152681E-08
vn 1 0 -8.070862E-06
vn 0.05041886 -0.998063 -0.03644584
vn 0.09170357 -0.9940072 -0.04225614
vn 0.1329883 -0.9899514 -0.04806644
vn -0.09179279 -0.9948288 0.009116589
vn -0.1331415 -0.991097 1.043321E-06
vn -0.05044407 -0.9985605 0.01823214

usemtl Rock_3
f 4/4/1 3/3/1 1/1/1 2/2/1
f 3/8/2 6/7/2 5/5/2 1/6/2
f 8/12/3 4/11/3 2/9/3 7/10/3
f 6/16/4 8/15/4 7/13/4 5/14/4
f 6/20/5 3/17/5 4/18/5 8/19/5
f 11/23/1 10/22/1 9/21/1 12/24/1
f 1/1/1 11/23/1 12/24/1 2/2/1
f 13/26/2 10/25/2 11/28/2 14/27/2
f 11/28/2 1/6/2 5/5/2 14/27/2
f 15/29/3 16/32/3 12/31/3 9/30/3
f 7/10/3 2/9/3 12/31/3 16/32/3
f 16/35/8 15/34/7 13/33/6 14/36/7
f 5/14/9 7/37/10 16/35/9 14/36/11

